# Blender v2.79 (sub 0) OBJ File: 'mc_grass_block.blend'
# www.blender.org
mtllib grass.mtl
o Cube_Cube.001
v 0.000000 0.000000 0.000000
v 0.000000 1.000000 0.000000
v 0.000000 0.000000 -1.000000
v 0.000000 1.000000 -1.000000
v 1.000000 0.000000 0.000000
v 1.000000 1.000000 0.000000
v 1.000000 0.000000 -1.000000
v 1.000000 1.000000 -1.000000
vt 0.187500 1.000000
vt 0.250000 0.937500
vt 0.250000 1.000000
vt 0.187500 1.000000
vt 0.250000 0.937500
vt 0.250000 1.000000
vt 0.187500 0.937500
vt 0.125000 1.000000
vt 0.187500 1.000000
vt 0.062500 0.937500
vt 0.000000 1.000000
vt 0.000000 0.937500
vt 0.187500 1.000000
vt 0.250000 0.937500
vt 0.250000 1.000000
vt 0.187500 1.000000
vt 0.250000 0.937500
vt 0.250000 1.000000
vt 0.187500 0.937500
vt 0.125000 0.937500
vt 0.062500 1.000000
vt 0.187500 0.937500
vt 0.187500 0.937500
vn 0.0000 0.0000 1.0000
vn 1.0000 0.0000 0.0000
vn 0.0000 -1.0000 0.0000
vn 0.0000 1.0000 0.0000
vn 0.0000 0.0000 -1.0000
vn -1.0000 0.0000 0.0000
usemtl GrassMaterial
s off
f 2/1/1 5/2/1 6/3/1
f 6/4/2 7/5/2 8/6/2
f 5/7/3 3/8/3 7/9/3
f 2/10/4 8/11/4 4/12/4
f 8/13/5 3/14/5 4/15/5
f 4/16/6 1/17/6 2/18/6
f 2/1/1 1/19/1 5/2/1
f 6/4/2 5/7/2 7/5/2
f 5/7/3 1/20/3 3/8/3
f 2/10/4 6/21/4 8/11/4
f 8/13/5 7/22/5 3/14/5
f 4/16/6 3/23/6 1/17/6
